<?xml version="1.0" encoding="UTF-8" standalone="no"?>
<!-- Created with Inkscape (http://www.inkscape.org/) -->

<svg
   xmlns:dc="http://purl.org/dc/elements/1.1/"
   xmlns:cc="http://creativecommons.org/ns#"
   xmlns:rdf="http://www.w3.org/1999/02/22-rdf-syntax-ns#"
   xmlns:svg="http://www.w3.org/2000/svg"
   xmlns="http://www.w3.org/2000/svg"
   xmlns:sodipodi="http://sodipodi.sourceforge.net/DTD/sodipodi-0.dtd"
   xmlns:inkscape="http://www.inkscape.org/namespaces/inkscape"
   width="210mm"
   height="297mm"
   viewBox="0 0 210 297"
   version="1.1"
   id="svg8"
   inkscape:version="0.92.3 (2405546, 2018-03-11)"
   sodipodi:docname="new_logo.svg">
  <defs
     id="defs2" />
  <sodipodi:namedview
     id="base"
     pagecolor="#ffffff"
     bordercolor="#666666"
     borderopacity="1.0"
     inkscape:pageopacity="0.0"
     inkscape:pageshadow="2"
     inkscape:zoom="0.24748737"
     inkscape:cx="185.9949"
     inkscape:cy="558.47566"
     inkscape:document-units="mm"
     inkscape:current-layer="layer1"
     showgrid="false"
     inkscape:window-width="1280"
     inkscape:window-height="889"
     inkscape:window-x="-8"
     inkscape:window-y="1016"
     inkscape:window-maximized="1" />
  <metadata
     id="metadata5">
    <rdf:RDF>
      <cc:Work
         rdf:about="">
        <dc:format>image/svg+xml</dc:format>
        <dc:type
           rdf:resource="http://purl.org/dc/dcmitype/StillImage" />
        <dc:title></dc:title>
      </cc:Work>
    </rdf:RDF>
  </metadata>
  <g
     inkscape:label="Layer 1"
     inkscape:groupmode="layer"
     id="layer1">
    <g
       transform="translate(67.27639,80.252951)"
       id="g4871">
      <path
         style="fill:#000000;fill-opacity:0"
         d="M 0,0.5 V 0 H 0.5 1 1.5 2 2.5 3 3.5 4 4.5 5 5.5 6 6.5 7 7.5 8 8.5 9 9.5 10 10.5 11 11.5 12 12.5 13 13.5 14 14.5 15 15.5 16 16.5 17 17.5 18 18.5 19 19.5 20 20.5 21 21.5 22 22.5 23 23.5 24 24.5 25 25.5 26 26.5 27 27.5 28 28.5 29 29.5 30 30.5 31 31.5 32 32.5 33 33.5 34 34.5 35 35.5 36 36.5 37 37.5 38 38.5 39 39.5 40 40.5 41 41.5 42 42.5 43 43.5 44 44.5 45 45.5 46 46.5 47 47.5 48 48.5 49 49.5 50 50.5 51 51.5 52 52.5 53 53.5 54 54.5 55 55.5 56 56.5 57 57.5 58 58.5 59 59.5 60 60.5 61 61.5 62 62.5 63 63.5 64 64.5 65 65.5 66 66.5 67 67.5 68 68.5 69 69.5 70 70.5 71 71.5 72 72.5 73 73.5 74 74.5 75 75.5 76 76.5 77 77.5 78 78.5 79 79.5 80 80.5 81 81.5 82 82.5 83 83.5 84 84.5 85 85.5 86 86.5 87 V 0.5 1 1.5 2 2.5 3 3.5 4 4.5 5 5.5 6 6.5 7 7.5 8 8.5 9 9.5 10 v 0.5 0.5 0.5 0.5 0.5 0.5 0.5 0.5 0.5 0.5 0.5 0.5 0.5 0.5 0.5 0.5 0.5 0.5 0.5 0.5 0.5 0.5 0.5 0.5 0.5 0.5 0.5 0.5 0.5 0.5 0.5 0.5 0.5 0.5 0.5 0.5 0.5 0.5 0.5 0.5 0.5 0.5 0.5 0.5 0.5 0.5 0.5 0.5 0.5 0.5 0.5 0.5 0.5 0.5 0.5 0.5 0.5 0.5 0.5 0.5 0.5 0.5 0.5 0.5 0.5 0.5 0.5 0.5 0.5 0.5 0.5 0.5 0.5 0.5 0.5 0.5 0.5 0.5 0.5 0.5 0.5 0.5 0.5 0.5 0.5 0.5 0.5 0.5 0.5 0.5 0.5 0.5 0.5 0.5 0.5 0.5 0.5 0.5 0.5 0.5 0.5 0.5 0.5 0.5 0.5 0.5 0.5 0.5 0.5 0.5 0.5 0.5 0.5 0.5 0.5 0.5 0.5 0.5 0.5 0.5 0.5 0.5 0.5 0.5 0.5 0.5 0.5 0.5 0.5 0.5 0.5 0.5 0.5 0.5 0.5 0.5 0.5 0.5 0.5 0.5 0.5 0.5 0.5 0.5 0.5 0.5 0.5 0.5 0.5 0.5 0.5 0.5 0.5 0.5 0.5 0.5 0.5 0.5 0.5 0.5 0.5 0.5 0.5 0.5 0.5 0.5 0.5 0.5 0.5 0.5 0.5 0.5 0.5 0.5 0.5 0.5 0.5 0.5 0.5 0.5 0.5 0.5 0.5 0.5 0.5 0.5 0.5 0.5 0.5 0.5 0.5 0.5 0.5 0.5 0.5 0.5 0.5 0.5 0.5 0.5 0.5 0.5 0.5 0.5 0.5 0.5 0.5 0.5 0.5 0.5 0.5 0.5 0.5 0.5 0.5 0.5 0.5 0.5 0.5 0.5 0.5 0.5 H 86.5 86 85.5 85 84.5 84 83.5 83 82.5 82 81.5 81 80.5 80 79.5 79 78.5 78 77.5 77 76.5 76 75.5 75 74.5 74 73.5 73 72.5 72 71.5 71 70.5 70 69.5 69 68.5 68 67.5 67 66.5 66 65.5 65 64.5 64 63.5 63 62.5 62 61.5 61 60.5 60 59.5 59 58.5 58 57.5 57 56.5 56 55.5 55 54.5 54 53.5 53 52.5 52 51.5 51 50.5 50 49.5 49 48.5 48 47.5 47 46.5 46 45.5 45 44.5 44 43.5 43 42.5 42 41.5 41 40.5 40 39.5 39 38.5 38 37.5 37 36.5 36 35.5 35 34.5 34 33.5 33 32.5 32 31.5 31 30.5 30 29.5 29 28.5 28 27.5 27 26.5 26 25.5 25 24.5 24 23.5 23 22.5 22 21.5 21 20.5 20 19.5 19 18.5 18 17.5 17 16.5 16 15.5 15 14.5 14 13.5 13 12.5 12 11.5 11 10.5 10 9.5 9 8.5 8 7.5 7 6.5 6 5.5 5 4.5 4 3.5 3 2.5 2 1.5 1 0.5 0 V 120.5 120 119.5 119 118.5 118 117.5 117 116.5 116 115.5 115 114.5 114 113.5 113 112.5 112 111.5 111 110.5 110 109.5 109 108.5 108 107.5 107 106.5 106 105.5 105 104.5 104 103.5 103 102.5 102 101.5 101 100.5 100 99.5 99 98.5 98 97.5 97 96.5 96 95.5 95 94.5 94 93.5 93 92.5 92 91.5 91 90.5 90 89.5 89 88.5 88 87.5 87 86.5 86 85.5 85 84.5 84 83.5 83 82.5 82 81.5 81 80.5 80 79.5 79 78.5 78 77.5 77 76.5 76 75.5 75 74.5 74 73.5 73 72.5 72 71.5 71 70.5 70 69.5 69 68.5 68 67.5 67 66.5 66 65.5 65 64.5 64 63.5 63 62.5 62 61.5 61 60.5 60 59.5 59 58.5 58 57.5 57 56.5 56 55.5 55 54.5 54 53.5 53 52.5 52 51.5 51 50.5 50 49.5 49 48.5 48 47.5 47 46.5 46 45.5 45 44.5 44 43.5 43 42.5 42 41.5 41 40.5 40 39.5 39 38.5 38 37.5 37 36.5 36 35.5 35 34.5 34 33.5 33 32.5 32 31.5 31 30.5 30 29.5 29 28.5 28 27.5 27 26.5 26 25.5 25 24.5 24 23.5 23 22.5 22 21.5 21 20.5 20 19.5 19 18.5 18 17.5 17 16.5 16 15.5 15 14.5 14 13.5 13 12.5 12 11.5 11 10.5 10 9.5 9 8.5 8 7.5 7 6.5 6 5.5 5 4.5 4 3.5 3 2.5 2 1.5 1 0.5 M 48.5,117 q 0.5,0 0.5,-0.5 0,-0.5 0.5,-0.5 0.5,0 1,0 0.5,0 1,0 0.5,0 0.5,-0.5 0,-0.5 0.5,-0.5 0.5,0 0.5,-0.5 0,-0.5 0.5,-0.5 0.5,0 1,0 0.5,0 0.5,-0.5 0,-0.5 0,-1 0,-0.5 0.5,-0.5 0.5,0 0.5,-0.5 0,-0.5 -0.5,-0.5 -0.5,0 -1,0 -0.5,0 -0.5,0.5 0,0.5 -0.5,0.5 -0.5,0 -1,0 -0.5,0 -1,0 -0.5,0 -1,0 -0.5,0 -0.5,0.5 0,0.5 -0.5,0.5 -0.5,0 -1,0 -0.5,0 -1,0 -0.5,0 -1,0 -0.5,0 -1,0 -0.5,0 -1,0 -0.5,0 -1,0 -0.5,0 -1,0 -0.5,0 -1,0 -0.5,0 -1,0 -0.5,0 -1,0 -0.5,0 -1,0 -0.5,0 -1,0 -0.5,0 -0.5,-0.5 0,-0.5 -0.5,-0.5 -0.5,0 -1,0 -0.5,0 -1,0 -0.5,0 -0.5,-0.5 0,-0.5 -0.5,-0.5 -0.5,0 -1,0 -0.5,0 -0.5,-0.5 0,-0.5 -0.5,-0.5 -0.5,0 -0.5,0.5 0,0.5 0,1 0,0.5 0.5,0.5 0.5,0 0.5,0.5 0,0.5 0.5,0.5 0.5,0 0.5,0.5 0,0.5 0.5,0.5 0.5,0 0.5,0.5 0,0.5 0.5,0.5 0.5,0 1,0 0.5,0 0.5,0.5 0,0.5 0.5,0.5 0.5,0 1,0 0.5,0 1,0 0.5,0 0.5,0.5 0,0.5 0.5,0.5 0.5,0 1,0 0.5,0 1,0 0.5,0 1,0 0.5,0 1,0 0.5,0 1,0 0.5,0 1,0 0.5,0 1,0 0.5,0 1,0 0.5,0 1,0 m 6,-8 q 0.5,0 0.5,-0.5 0,-0.5 0.5,-0.5 0.5,0 0.5,-0.5 0,-0.5 0,-1 0,-0.5 0,-1 0,-0.5 0,-1 0,-0.5 0,-1 0,-0.5 0,-1 0,-0.5 0,-1 0,-0.5 0,-1 0,-0.5 0,-1 Q 56,99 55.5,99 55,99 55,99.5 q 0,0.5 -0.5,0.5 -0.5,0 -1,0 -0.5,0 -0.5,0.5 0,0.5 0,1 0,0.5 0,1 0,0.5 0,1 0,0.5 0,1 0,0.5 0,1 0,0.5 0,1 0,0.5 0,1 0,0.5 0,1 0,0.5 0.5,0.5 0.5,0 1,0 m -5,-10 Q 50,99 50,98.5 50,98 50.5,98 q 0.5,0 1,0 0.5,0 1,0 0.5,0 1,0 0.5,0 0.5,-0.5 0,-0.5 0.5,-0.5 0.5,0 1,0 0.5,0 1,0 Q 57,97 57,96.5 57,96 57.5,96 58,96 58,95.5 58,95 58.5,95 59,95 59,94.5 59,94 59.5,94 60,94 60,93.5 60,93 60.5,93 61,93 61,92.5 61,92 61,91.5 61,91 61,90.5 61,90 60.5,90 60,90 59.5,90 59,90 59,90.5 59,91 58.5,91 58,91 57.5,91 57,91 57,91.5 57,92 56.5,92 q -0.5,0 -1,0 -0.5,0 -1,0 -0.5,0 -0.5,0.5 0,0.5 -0.5,0.5 -0.5,0 -1,0 -0.5,0 -1,0 -0.5,0 -1,0 -0.5,0 -1,0 -0.5,0 -1,0 -0.5,0 -1,0 -0.5,0 -0.5,0.5 0,0.5 -0.5,0.5 -0.5,0 -1,0 -0.5,0 -1,0 -0.5,0 -1,0 -0.5,0 -1,0 -0.5,0 -1,0 Q 41,94 41,93.5 41,93 40.5,93 q -0.5,0 -1,0 -0.5,0 -1,0 -0.5,0 -1,0 -0.5,0 -1,0 -0.5,0 -1,0 -0.5,0 -1,0 Q 34,93 34,92.5 34,92 33.5,92 33,92 32.5,92 32,92 31.5,92 31,92 31,91.5 31,91 30.5,91 30,91 29.5,91 29,91 28.5,91 28,91 28,90.5 28,90 27.5,90 q -0.5,0 -1,0 -0.5,0 -0.5,0.5 0,0.5 0,1 0,0.5 0.5,0.5 0.5,0 0.5,0.5 0,0.5 0,1 0,0.5 0.5,0.5 0.5,0 0.5,0.5 0,0.5 0.5,0.5 0.5,0 0.5,0.5 0,0.5 0.5,0.5 0.5,0 1,0 0.5,0 0.5,0.5 0,0.5 0.5,0.5 0.5,0 1,0 0.5,0 0.5,0.5 0,0.5 0.5,0.5 0.5,0 1,0 0.5,0 1,0 0.5,0 1,0 0.5,0 1,0 0.5,0 0.5,0.5 0,0.5 0.5,0.5 0.5,0 1,0 0.5,0 1,0 0.5,0 1,0 0.5,0 1,0 0.5,0 1,0 0.5,0 1,0 0.5,0 1,0 0.5,0 1,0 0.5,0 1,0 0.5,0 1,0 0.5,0 1,0 m -5,-7 Q 45,92 45,91.5 45,91 45.5,91 q 0.5,0 1,0 0.5,0 1,0 0.5,0 1,0 0.5,0 1,0 0.5,0 1,0 0.5,0 1,0 0.5,0 1,0 0.5,0 0.5,-0.5 0,-0.5 0.5,-0.5 0.5,0 1,0 0.5,0 1,0 0.5,0 0.5,-0.5 0,-0.5 0.5,-0.5 0.5,0 1,0 0.5,0 1,0 Q 59,89 59,88.5 59,88 59.5,88 60,88 60,87.5 60,87 60.5,87 61,87 61.5,87 62,87 62,86.5 62,86 62.5,86 63,86 63,85.5 63,85 63.5,85 64,85 64,84.5 64,84 64,83.5 64,83 64.5,83 65,83 65,82.5 q 0,-0.5 0,-1 0,-0.5 0,-1 0,-0.5 0,-1 Q 65,79 65.5,79 66,79 66,78.5 66,78 66.5,78 67,78 67,77.5 67,77 67.5,77 68,77 68,76.5 68,76 68,75.5 68,75 68.5,75 69,75 69,74.5 69,74 69.5,74 70,74 70,73.5 70,73 70.5,73 71,73 71,72.5 71,72 71.5,72 72,72 72,71.5 72,71 72.5,71 73,71 73,70.5 73,70 73.5,70 74,70 74,69.5 74,69 74.5,69 75,69 75,68.5 75,68 75.5,68 76,68 76,67.5 76,67 76,66.5 76,66 76.5,66 77,66 77,65.5 77,65 77.5,65 78,65 78,64.5 78,64 78,63.5 78,63 78.5,63 79,63 79,62.5 q 0,-0.5 0,-1 0,-0.5 0,-1 0,-0.5 0.5,-0.5 0.5,0 0.5,-0.5 0,-0.5 0,-1 0,-0.5 0.5,-0.5 0.5,0 0.5,-0.5 0,-0.5 0,-1 0,-0.5 0,-1 0,-0.5 0,-1 0,-0.5 0,-1 0,-0.5 0.5,-0.5 0.5,0 0.5,-0.5 0,-0.5 0,-1 0,-0.5 0,-1 0,-0.5 0,-1 0,-0.5 0,-1 0,-0.5 0,-1 0,-0.5 0,-1 0,-0.5 0,-1 0,-0.5 0,-1 0,-0.5 0,-1 0,-0.5 0,-1 0,-0.5 0,-1 0,-0.5 0,-1 Q 82,40 81.5,40 81,40 81,39.5 q 0,-0.5 0,-1 0,-0.5 0,-1 0,-0.5 0,-1 Q 81,36 80.5,36 80,36 80,35.5 80,35 80,34.5 80,34 80,33.5 80,33 79.5,33 79,33 79,32.5 79,32 79,31.5 79,31 79,30.5 79,30 78.5,30 78,30 78,29.5 78,29 78,28.5 78,28 77.5,28 77,28 77,27.5 77,27 76.5,27 76,27 76,26.5 76,26 76,25.5 76,25 75.5,25 75,25 75,24.5 75,24 74.5,24 74,24 74,23.5 74,23 74,22.5 74,22 73.5,22 73,22 73,21.5 73,21 72.5,21 72,21 72,20.5 72,20 71.5,20 71,20 71,19.5 71,19 70.5,19 70,19 70,18.5 70,18 69.5,18 69,18 69,17.5 69,17 68.5,17 68,17 68,16.5 68,16 67.5,16 67,16 66.5,16 66,16 66,15.5 66,15 65.5,15 65,15 65,14.5 65,14 64.5,14 64,14 63.5,14 63,14 63,13.5 63,13 62.5,13 62,13 61.5,13 61,13 61,12.5 61,12 60.5,12 60,12 59.5,12 59,12 59,11.5 59,11 58.5,11 58,11 57.5,11 57,11 57,10.5 57,10 56.5,10 56,10 55.5,10 55,10 54.5,10 54,10 54,9.5 54,9 53.5,9 53,9 52.5,9 52,9 51.5,9 51,9 50.5,9 50,9 49.5,9 49,9 49,8.5 49,8 48.5,8 48,8 47.5,8 47,8 46.5,8 46,8 45.5,8 45,8 44.5,8 44,8 43.5,8 43,8 42.5,8 42,8 41.5,8 41,8 40.5,8 40,8 39.5,8 39,8 39,8.5 39,9 38.5,9 38,9 37.5,9 37,9 36.5,9 36,9 35.5,9 35,9 34.5,9 34,9 34,9.5 34,10 33.5,10 q -0.5,0 -1,0 -0.5,0 -1,0 -0.5,0 -0.5,0.5 0,0.5 -0.5,0.5 -0.5,0 -1,0 -0.5,0 -1,0 Q 28,11 28,11.5 28,12 27.5,12 27,12 26.5,12 26,12 26,12.5 26,13 25.5,13 25,13 24.5,13 24,13 24,13.5 24,14 23.5,14 23,14 23,14.5 23,15 22.5,15 22,15 21.5,15 21,15 21,15.5 21,16 20.5,16 20,16 20,16.5 20,17 19.5,17 19,17 19,17.5 19,18 18.5,18 18,18 18,18.5 18,19 17.5,19 17,19 17,19.5 17,20 16.5,20 16,20 16,20.5 16,21 15.5,21 15,21 15,21.5 15,22 14.5,22 14,22 14,22.5 14,23 13.5,23 13,23 13,23.5 13,24 12.5,24 12,24 12,24.5 12,25 12,25.5 12,26 11.5,26 11,26 11,26.5 11,27 10.5,27 10,27 10,27.5 10,28 10,28.5 10,29 9.5,29 9,29 9,29.5 9,30 9,30.5 9,31 8.5,31 8,31 8,31.5 8,32 8,32.5 8,33 8,33.5 8,34 7.5,34 7,34 7,34.5 7,35 7,35.5 7,36 7,36.5 7,37 6.5,37 6,37 6,37.5 q 0,0.5 0,1 0,0.5 0,1 0,0.5 0,1 0,0.5 0,1 0,0.5 0,1 0,0.5 0,1 Q 6,44 5.5,44 5,44 5,44.5 q 0,0.5 0,1 0,0.5 0,1 0,0.5 0,1 0,0.5 0,1 0,0.5 0.5,0.5 0.5,0 0.5,0.5 0,0.5 0,1 0,0.5 0,1 0,0.5 0,1 0,0.5 0,1 0,0.5 0,1 0,0.5 0,1 0,0.5 0.5,0.5 0.5,0 0.5,0.5 0,0.5 0,1 0,0.5 0,1 0,0.5 0.5,0.5 0.5,0 0.5,0.5 0,0.5 0,1 0,0.5 0,1 0,0.5 0.5,0.5 0.5,0 0.5,0.5 0,0.5 0,1 0,0.5 0.5,0.5 0.5,0 0.5,0.5 0,0.5 0.5,0.5 0.5,0 0.5,0.5 0,0.5 0,1 0,0.5 0.5,0.5 0.5,0 0.5,0.5 0,0.5 0.5,0.5 0.5,0 0.5,0.5 0,0.5 0,1 0,0.5 0.5,0.5 0.5,0 0.5,0.5 0,0.5 0.5,0.5 0.5,0 0.5,0.5 0,0.5 0.5,0.5 0.5,0 0.5,0.5 0,0.5 0.5,0.5 0.5,0 0.5,0.5 0,0.5 0.5,0.5 0.5,0 0.5,0.5 0,0.5 0.5,0.5 0.5,0 0.5,0.5 0,0.5 0.5,0.5 0.5,0 0.5,0.5 0,0.5 0.5,0.5 0.5,0 0.5,0.5 0,0.5 0.5,0.5 0.5,0 0.5,0.5 0,0.5 0,1 0,0.5 0.5,0.5 0.5,0 0.5,0.5 0,0.5 0,1 0,0.5 0,1 0,0.5 0,1 0,0.5 0.5,0.5 0.5,0 0.5,0.5 0,0.5 0,1 0,0.5 0.5,0.5 0.5,0 0.5,0.5 0,0.5 0.5,0.5 0.5,0 1,0 0.5,0 0.5,0.5 0,0.5 0.5,0.5 0.5,0 1,0 0.5,0 0.5,0.5 0,0.5 0.5,0.5 0.5,0 1,0 0.5,0 0.5,0.5 0,0.5 0.5,0.5 0.5,0 1,0 0.5,0 1,0 0.5,0 1,0 0.5,0 0.5,0.5 0,0.5 0.5,0.5 0.5,0 1,0 0.5,0 1,0 0.5,0 1,0 0.5,0 1,0 0.5,0 1,0 0.5,0 1,0 0.5,0 1,0 0.5,0 0.5,0.5 0,0.5 0.5,0.5 0.5,0 1,0 m -11,17 q 0.5,0 0.5,-0.5 0,-0.5 0,-1 0,-0.5 0,-1 0,-0.5 0,-1 0,-0.5 0,-1 0,-0.5 0,-1 0,-0.5 0,-1 0,-0.5 0,-1 0,-0.5 0,-1 0,-0.5 -0.5,-0.5 -0.5,0 -1,0 Q 32,100 32,99.5 32,99 31.5,99 31,99 31,99.5 q 0,0.5 0,1 0,0.5 0,1 0,0.5 0,1 0,0.5 0,1 0,0.5 0,1 0,0.5 0,1 0,0.5 0,1 0,0.5 0,1 0,0.5 0.5,0.5 0.5,0 0.5,0.5 0,0.5 0.5,0.5 0.5,0 1,0"
         id="path4853"
         inkscape:connector-curvature="0" />
      <path
         style="fill:#000000;fill-opacity:1"
         d="m 51.966136,9.0279229 c 5.400396,0.9291874 10.151454,4.0180161 14.817275,6.7290641 4.699046,3.154075 7.813971,7.935218 10.805465,12.618906 1.886417,3.61052 2.944533,7.732741 3.975987,11.608935 0.916272,4.0954 0.424857,8.421433 0.04377,12.562286 C 80.601017,58.684075 78.375817,64.936458 74,69.5 70.540956,73.259911 65.345827,77.077 64.927993,82.318401 59.602082,91.79049 50.613886,90.125789 42.561768,91.519828 32.897372,90.220767 24.239988,88.902963 21.848891,78.628567 14.159629,71.004374 8.5172351,63.774917 5.9797218,53.776114 4.579015,44.960908 6.0087455,38.116519 8.8512669,30.146806 11.694049,24.177876 16.536531,19.545658 21.494627,15.324469 31.409673,8.8349652 41.011468,7.3379975 51.966136,9.0279229 Z M 46.986182,74.913276 c 1.677446,-3.569213 -2.340127,-11.11798 -5.76944,-6.273873 -8.054928,16.308791 8.381266,26.494922 5.76944,6.273873 z M 47.5,64 C 48.470376,57.847762 48,51.96397 48,45.5 45.188992,40.953228 38.144077,44.547134 39.034319,49.435926 38.94206,54.122365 39.030888,58.811654 39,63.5 c 2.663914,1.092534 5.672523,0.284314 8.5,0.5 z M 58.263453,76.351672 C 64.046612,67.928219 73.70614,61.480715 74.019921,51.241738 76.632813,41.835338 70.901252,29.450317 64.548589,23.985793 51.003774,13.124436 34.807733,14.017857 22.626546,23.835307 12.978538,34.211322 10.121735,49.07818 16.291067,60.687738 24.203425,67.476107 26.434941,76.279969 30.43427,83.281281 31.344368,86.176289 39.070401,88.424344 38,83.360231 V 70.5 C 36.394805,68.251685 33.805474,66.446517 35.893315,63.556528 36.122268,57.547848 35.942241,51.518824 36,45.5 38.551861,40.922246 45.797197,38.878179 49.453581,43.261757 52.948105,47.100133 51.803808,52.453361 52,57.160787 V 64.5 c -11.993621,17.858699 8.155026,29.021283 6.263453,11.851672 z"
         id="path4855"
         inkscape:connector-curvature="0"
         sodipodi:nodetypes="ccccccccccccccccccccccccccccccccccc" />
      <path
         style="fill:#000000;fill-opacity:0"
         d="m 36,16.5 q 0,-0.5 0.5,-0.5 0.5,0 1,0 0.5,0 1,0 0.5,0 1,0 0.5,0 1,0 0.5,0 1,0 0.5,0 1,0 0.5,0 1,0 0.5,0 1,0 0.5,0 1,0 0.5,0 1,0 0.5,0 1,0 0.5,0 1,0 0.5,0 1,0 0.5,0 1,0 0.5,0 0.5,0.5 0,0.5 0.5,0.5 0.5,0 1,0 0.5,0 1,0 0.5,0 0.5,0.5 0,0.5 0.5,0.5 0.5,0 1,0 0.5,0 1,0 0.5,0 0.5,0.5 0,0.5 0.5,0.5 0.5,0 1,0 0.5,0 0.5,0.5 0,0.5 0.5,0.5 0.5,0 0.5,0.5 0,0.5 0.5,0.5 0.5,0 1,0 0.5,0 0.5,0.5 0,0.5 0.5,0.5 0.5,0 0.5,0.5 0,0.5 0.5,0.5 0.5,0 0.5,0.5 0,0.5 0.5,0.5 0.5,0 0.5,0.5 0,0.5 0.5,0.5 0.5,0 0.5,0.5 0,0.5 0.5,0.5 0.5,0 0.5,0.5 0,0.5 0.5,0.5 0.5,0 0.5,0.5 0,0.5 0.5,0.5 0.5,0 0.5,0.5 0,0.5 0.5,0.5 0.5,0 0.5,0.5 0,0.5 0,1 0,0.5 0.5,0.5 0.5,0 0.5,0.5 0,0.5 0,1 0,0.5 0.5,0.5 0.5,0 0.5,0.5 0,0.5 0,1 0,0.5 0.5,0.5 0.5,0 0.5,0.5 0,0.5 0,1 0,0.5 0,1 0,0.5 0.5,0.5 0.5,0 0.5,0.5 0,0.5 0,1 0,0.5 0,1 0,0.5 0,1 0,0.5 0,1 0,0.5 0,1 0,0.5 0.5,0.5 0.5,0 0.5,0.5 0,0.5 0,1 0,0.5 0,1 0,0.5 0,1 0,0.5 0,1 0,0.5 -0.5,0.5 -0.5,0 -0.5,0.5 0,0.5 0,1 0,0.5 0,1 0,0.5 0,1 0,0.5 0,1 0,0.5 0,1 0,0.5 -0.5,0.5 -0.5,0 -0.5,0.5 0,0.5 0,1 0,0.5 0,1 0,0.5 -0.5,0.5 -0.5,0 -0.5,0.5 0,0.5 0,1 0,0.5 -0.5,0.5 -0.5,0 -0.5,0.5 0,0.5 0,1 Q 71,62 70.5,62 70,62 70,62.5 70,63 69.5,63 69,63 69,63.5 69,64 69,64.5 69,65 68.5,65 68,65 68,65.5 68,66 67.5,66 67,66 67,66.5 67,67 66.5,67 66,67 66,67.5 66,68 65.5,68 65,68 65,68.5 65,69 64.5,69 64,69 64,69.5 64,70 63.5,70 63,70 63,70.5 63,71 62.5,71 62,71 62,71.5 62,72 61.5,72 61,72 61,72.5 61,73 60.5,73 60,73 60,73.5 60,74 59.5,74 59,74 59,74.5 q 0,0.5 0,1 0,0.5 -0.5,0.5 -0.5,0 -0.5,0.5 0,0.5 0,1 0,0.5 0,1 0,0.5 0,1 0,0.5 0,1 0,0.5 0,1 0,0.5 -0.5,0.5 -0.5,0 -0.5,0.5 0,0.5 0,1 Q 57,84 56.5,84 56,84 56,84.5 56,85 55.5,85 55,85 54.5,85 54,85 54,85.5 54,86 53.5,86 53,86 52.5,86 52,86 52,86.5 52,87 51.5,87 51,87 50.5,87 50,87 50,86.5 50,86 50,85.5 50,85 50,84.5 50,84 49.5,84 49,84 49,83.5 q 0,-0.5 0,-1 0,-0.5 0,-1 0,-0.5 0,-1 0,-0.5 0,-1 0,-0.5 0,-1 0,-0.5 0,-1 0,-0.5 0,-1 0,-0.5 0,-1 0,-0.5 0,-1 0,-0.5 0,-1 0,-0.5 0,-1 0,-0.5 0,-1 Q 49,71 49.5,71 50,71 50,70.5 50,70 50,69.5 50,69 50.5,69 51,69 51,68.5 51,68 51.5,68 52,68 52,67.5 52,67 52.5,67 53,67 53,66.5 53,66 53,65.5 53,65 52.5,65 52,65 52,64.5 q 0,-0.5 0,-1 0,-0.5 0,-1 0,-0.5 0,-1 0,-0.5 0,-1 0,-0.5 0,-1 0,-0.5 0,-1 0,-0.5 0,-1 0,-0.5 0,-1 0,-0.5 0,-1 0,-0.5 0,-1 0,-0.5 0,-1 0,-0.5 0,-1 0,-0.5 0,-1 0,-0.5 0,-1 0,-0.5 0,-1 0,-0.5 0,-1 0,-0.5 0,-1 Q 52,47 51.5,47 51,47 51,46.5 51,46 51,45.5 51,45 50.5,45 50,45 50,44.5 50,44 50,43.5 50,43 49.5,43 49,43 49,42.5 49,42 48.5,42 48,42 47.5,42 47,42 47,41.5 47,41 46.5,41 q -0.5,0 -1,0 -0.5,0 -1,0 -0.5,0 -1,0 -0.5,0 -1,0 -0.5,0 -1,0 -0.5,0 -1,0 Q 40,41 40,41.5 40,42 39.5,42 39,42 39,42.5 39,43 38.5,43 38,43 38,43.5 38,44 37.5,44 37,44 37,44.5 37,45 36.5,45 36,45 36,45.5 q 0,0.5 0,1 0,0.5 0,1 0,0.5 0,1 0,0.5 0,1 0,0.5 0,1 0,0.5 0,1 0,0.5 0,1 0,0.5 0,1 0,0.5 0,1 0,0.5 0,1 0,0.5 0,1 0,0.5 0,1 0,0.5 0,1 0,0.5 0,1 0,0.5 0,1 0,0.5 0,1 0,0.5 0,1 0,0.5 0,1 0,0.5 0,1 0,0.5 -0.5,0.5 -0.5,0 -0.5,0.5 0,0.5 0,1 0,0.5 0,1 0,0.5 0.5,0.5 0.5,0 1,0 0.5,0 0.5,0.5 0,0.5 0,1 0,0.5 0.5,0.5 0.5,0 0.5,0.5 0,0.5 0,1 0,0.5 0,1 0,0.5 0,1 0,0.5 0,1 0,0.5 0,1 0,0.5 0,1 0,0.5 0,1 0,0.5 0,1 0,0.5 0,1 0,0.5 0,1 0,0.5 0,1 0,0.5 0,1 0,0.5 0,1 0,0.5 0,1 0,0.5 0,1 Q 38,86 37.5,86 37,86 37,86.5 37,87 36.5,87 36,87 36,86.5 36,86 35.5,86 35,86 34.5,86 34,86 33.5,86 33,86 33,85.5 33,85 32.5,85 32,85 31.5,85 31,85 31,84.5 31,84 31,83.5 31,83 30.5,83 30,83 30,82.5 30,82 30,81.5 30,81 29.5,81 29,81 29,80.5 q 0,-0.5 0,-1 0,-0.5 0,-1 0,-0.5 0,-1 0,-0.5 0,-1 0,-0.5 0,-1 Q 29,75 28.5,75 28,75 28,74.5 28,74 28,73.5 28,73 27.5,73 27,73 27,72.5 27,72 26.5,72 26,72 26,71.5 26,71 25.5,71 25,71 24.5,71 24,71 24,70.5 24,70 23.5,70 23,70 23,69.5 23,69 22.5,69 22,69 22,68.5 22,68 21.5,68 21,68 21,67.5 21,67 20.5,67 20,67 20,66.5 20,66 19.5,66 19,66 19,65.5 19,65 19,64.5 19,64 18.5,64 18,64 18,63.5 18,63 17.5,63 17,63 17,62.5 17,62 17,61.5 17,61 16.5,61 16,61 16,60.5 16,60 16,59.5 16,59 15.5,59 15,59 15,58.5 15,58 15,57.5 15,57 15,56.5 15,56 14.5,56 14,56 14,55.5 14,55 14,54.5 14,54 14,53.5 14,53 13.5,53 13,53 13,52.5 q 0,-0.5 0,-1 0,-0.5 0,-1 0,-0.5 0,-1 0,-0.5 0,-1 0,-0.5 0,-1 0,-0.5 0,-1 0,-0.5 0,-1 0,-0.5 0,-1 0,-0.5 0,-1 0,-0.5 0,-1 0,-0.5 0,-1 0,-0.5 0,-1 0,-0.5 0.5,-0.5 0.5,0 0.5,-0.5 0,-0.5 0,-1 0,-0.5 0,-1 0,-0.5 0.5,-0.5 0.5,0 0.5,-0.5 0,-0.5 0,-1 0,-0.5 0,-1 Q 15,34 15.5,34 16,34 16,33.5 16,33 16,32.5 16,32 16.5,32 17,32 17,31.5 17,31 17,30.5 17,30 17.5,30 18,30 18,29.5 18,29 18.5,29 19,29 19,28.5 19,28 19,27.5 19,27 19.5,27 20,27 20,26.5 20,26 20.5,26 21,26 21,25.5 21,25 21.5,25 22,25 22,24.5 22,24 22.5,24 23,24 23,23.5 23,23 23.5,23 24,23 24,22.5 24,22 24.5,22 25,22 25.5,22 26,22 26,21.5 26,21 26.5,21 27,21 27,20.5 27,20 27.5,20 q 0.5,0 1,0 0.5,0 0.5,-0.5 0,-0.5 0.5,-0.5 0.5,0 1,0 0.5,0 0.5,-0.5 0,-0.5 0.5,-0.5 0.5,0 1,0 0.5,0 0.5,-0.5 0,-0.5 0.5,-0.5 0.5,0 1,0 0.5,0 1,0 0.5,0 0.5,-0.5"
         id="path4857"
         inkscape:connector-curvature="0" />
      <path
         style="fill:#000000;fill-opacity:0"
         d="m 43,43.5 q 0,-0.5 0.5,-0.5 0.5,0 1,0 0.5,0 0.5,0.5 0,0.5 0.5,0.5 0.5,0 1,0 0.5,0 0.5,0.5 0,0.5 0.5,0.5 0.5,0 0.5,0.5 0,0.5 0,1 0,0.5 0,1 0,0.5 0,1 0,0.5 0,1 0,0.5 0,1 0,0.5 0,1 0,0.5 0,1 0,0.5 0,1 0,0.5 0,1 0,0.5 0,1 0,0.5 0,1 0,0.5 0,1 0,0.5 0,1 0,0.5 0,1 0,0.5 0,1 0,0.5 0,1 0,0.5 0,1 0,0.5 0,1 0,0.5 -0.5,0.5 -0.5,0 -1,0 -0.5,0 -1,0 -0.5,0 -1,0 -0.5,0 -1,0 -0.5,0 -1,0 -0.5,0 -1,0 -0.5,0 -1,0 -0.5,0 -1,0 -0.5,0 -0.5,-0.5 0,-0.5 0,-1 0,-0.5 0,-1 0,-0.5 0,-1 0,-0.5 0,-1 0,-0.5 0,-1 0,-0.5 0,-1 0,-0.5 0,-1 0,-0.5 0,-1 0,-0.5 0,-1 0,-0.5 0,-1 0,-0.5 0,-1 0,-0.5 0,-1 0,-0.5 0,-1 0,-0.5 0,-1 0,-0.5 0,-1 0,-0.5 0,-1 Q 39,47 39.5,47 40,47 40,46.5 40,46 40,45.5 40,45 40.5,45 41,45 41,44.5 41,44 41.5,44 q 0.5,0 1,0 0.5,0 0.5,-0.5"
         id="path4859"
         inkscape:connector-curvature="0" />
      <path
         style="fill:#000000;fill-opacity:0"
         d="m 42,67.5 q 0,-0.5 0.5,-0.5 0.5,0 1,0 0.5,0 1,0 0.5,0 0.5,0.5 0,0.5 0.5,0.5 0.5,0 0.5,0.5 0,0.5 0.5,0.5 0.5,0 0.5,0.5 0,0.5 0,1 0,0.5 0,1 0,0.5 0,1 0,0.5 0,1 0,0.5 0,1 0,0.5 0,1 0,0.5 0,1 0,0.5 0,1 0,0.5 0.5,0.5 0.5,0 0.5,0.5 0,0.5 0,1 0,0.5 0,1 0,0.5 0,1 0,0.5 0,1 0,0.5 0,1 0,0.5 0,1 0,0.5 0,1 0,0.5 0,1 0,0.5 -0.5,0.5 -0.5,0 -1,0 -0.5,0 -1,0 -0.5,0 -1,0 -0.5,0 -1,0 -0.5,0 -1,0 -0.5,0 -1,0 -0.5,0 -1,0 -0.5,0 -1,0 -0.5,0 -0.5,-0.5 0,-0.5 0,-1 0,-0.5 0,-1 0,-0.5 0,-1 0,-0.5 0,-1 0,-0.5 0.5,-0.5 0.5,0 0.5,-0.5 0,-0.5 0,-1 0,-0.5 0,-1 0,-0.5 0,-1 0,-0.5 0,-1 0,-0.5 0,-1 0,-0.5 0,-1 0,-0.5 0,-1 0,-0.5 0,-1 0,-0.5 0,-1 0,-0.5 0.5,-0.5 0.5,0 0.5,-0.5 0,-0.5 0,-1 0,-0.5 0,-1 0,-0.5 0,-1 Q 41,68 41.5,68 42,68 42,67.5"
         id="path4861"
         inkscape:connector-curvature="0" />
      <path
         style="fill:#000000;fill-opacity:1"
         d="m 26,90.5 c 3.682085,-0.554792 7.872912,2.45224 12.141503,2.496681 7.120549,0.392767 14.870321,1.568944 20.324921,-2.245737 0.883596,-0.84308 2.742829,-1.083795 2.669337,0.625848 0.149482,1.370992 -1.183893,2.041785 -1.955159,2.932057 C 50.722541,103.04483 24.348296,96.580283 26,90.5 Z"
         id="path4863"
         inkscape:connector-curvature="0"
         sodipodi:nodetypes="cccccc" />
      <path
         style="fill:#000000;fill-opacity:1"
         d="m 31,99.5 c -0.07207,-0.462791 0.593357,-0.669539 0.883146,-0.369391 0.189184,0.281558 0.03869,0.841593 0.51759,0.863 0.431452,0.0352 0.870977,-0.03853 1.29828,0.03924 0.411883,0.11766 0.279243,0.62452 0.300954,0.94446 -0.0018,2.54671 0.0039,5.09344 -0.003,7.64013 -0.04874,0.42148 -0.547571,0.40953 -0.864952,0.38078 -0.361547,-0.0385 -0.986477,0.15826 -1.104873,-0.32294 0.03588,-0.40933 -0.236133,-0.75693 -0.669306,-0.69168 -0.430447,-0.0555 -0.362084,-0.58373 -0.354705,-0.90005 C 30.995767,104.55587 31.001992,102.02776 31,99.5 Z"
         id="path4865"
         inkscape:connector-curvature="0" />
      <path
         style="fill:#000000;fill-opacity:1"
         d="m 55,99.5 c -0.07831,-0.483469 0.661267,-0.68941 0.915061,-0.321872 0.164701,0.321683 0.05234,0.698173 0.08474,1.043932 -0.0018,2.46995 0.005,4.93999 -0.0038,7.4099 -0.05461,0.48648 -0.674939,0.26226 -0.909279,0.53569 -0.12258,0.30702 -0.05295,0.84081 -0.531722,0.83097 -0.395876,-0.0111 -0.794721,0.0226 -1.188911,-0.0147 -0.432746,-0.0561 -0.375957,-0.56912 -0.362985,-0.88835 -0.0054,-2.57081 -0.0049,-5.14204 -1.53e-4,-7.71298 0.04874,-0.420199 0.547571,-0.410336 0.864952,-0.384305 0.392323,-0.01935 1.085344,0.146815 1.130689,-0.424537 z"
         id="path4867"
         inkscape:connector-curvature="0" />
      <path
         style="fill:#000000;fill-opacity:1"
         d="m 31,110.5 c 0.561593,-0.95639 6.081087,2.6709 7.620059,2.54289 5.875835,1.90356 12.289602,-2.45548 16.847691,-2.03842 0.845346,3.88959 -7.096696,5.66218 -9.80322,5.99428 -6.208563,0.46659 -9.8576,-1.12075 -14.097109,-4.87167 C 31.09283,111.70116 30.840395,111.1357 31,110.5 Z"
         id="path4869"
         inkscape:connector-curvature="0"
         sodipodi:nodetypes="cccccc" />
    </g>
  </g>
</svg>
