<?xml version="1.0" encoding="UTF-8"?>
<!DOCTYPE svg PUBLIC "-//W3C//DTD SVG 1.1//EN" "http://www.w3.org/Graphics/SVG/1.1/DTD/svg11.dtd">
<!-- Creator: CorelDRAW X7 -->
<svg xmlns="http://www.w3.org/2000/svg" xml:space="preserve" width="1.98652in" height="5.50638in" version="1.1" style="shape-rendering:geometricPrecision; text-rendering:geometricPrecision; image-rendering:optimizeQuality; fill-rule:evenodd; clip-rule:evenodd"
viewBox="0 0 1787 4954"
 xmlns:xlink="http://www.w3.org/1999/xlink">
 <defs>
  <style type="text/css">
   <![CDATA[
    .str0 {stroke:black;stroke-width:6.2488;stroke-linecap:square}
    .fil0 {fill:none}
   ]]>
  </style>
 </defs>
 <g id="Layer_x0020_1">
  <metadata id="CorelCorpID_0Corel-Layer"/>
  <path class="fil0 str0" d="M1193 4c9,7 4,110 0,123 0,26 4,70 -3,92 0,66 -7,441 3,471 0,27 -5,73 3,96 0,27 -1,114 6,135 0,0 2,77 6,102l84 723c14,44 23,116 35,165 13,54 25,110 42,162 32,96 76,252 145,327 2,6 -25,209 -27,228 0,35 -5,152 3,177 6,67 18,133 37,198 13,44 25,83 41,126 22,60 81,210 123,255 0,0 -16,150 -18,162 -5,31 0,189 6,228l31 189c6,22 21,65 23,84 19,33 28,85 51,122 4,16 -27,123 -33,130l-15 133c-19,-20 -21,-191 -36,-218 -3,-34 -90,-250 -109,-296 -41,-102 -85,-200 -127,-300 -42,-101 -94,-200 -135,-300 -20,-49 -48,-102 -72,-150 -24,-48 -63,-105 -82,-150 -17,-17 -46,-60 -60,-81 -55,-68 -121,-130 -189,-186 -76,-51 -142,-112 -222,-161 -37,-23 -74,-44 -111,-66l-129 -70c-49,-1 122,-292 139,-333 21,-50 42,-99 62,-150 15,-37 41,-125 57,-153 2,-26 42,-135 52,-171 32,-112 67,-235 91,-348 11,-51 22,-127 37,-174l39 -225c22,-67 32,-239 42,-318 5,-29 4,-87 6,-99l6 -78c4,-26 6,-95 6,-96 7,-21 3,-51 3,-75 11,-32 -4,-75 6,-107 50,-33 135,-107 183,-123z"/>
  <path class="fil0 str0" d="M343 2542c76,24 187,95 258,139 80,48 146,109 222,160 68,56 134,119 189,186 55,82 96,140 142,231 24,48 52,101 72,150 41,100 93,199 135,300 41,101 86,198 127,300 19,46 106,263 109,297 159,276 -228,-149 -264,-186 -27,-18 -76,-73 -102,-99 -24,-16 -53,-50 -75,-72 -23,-15 -43,-40 -63,-60 -38,-31 -90,-87 -123,-114l-78 -69c-51,-34 -90,-77 -147,-111 -42,-25 -67,-30 -111,-45 -54,-8 -157,22 -204,39 -127,47 -256,120 -378,159 -16,-22 158,-323 181,-375 24,-56 43,-110 62,-168l57 -294c7,-42 14,-148 9,-182 -3,-29 -24,-170 -18,-186z"/>
  <path class="fil0 str0" d="M126 4528c-10,-27 7,-86 0,-129l-30 -213c-1,-68 -59,-240 -93,-297 -1,-31 208,-110 249,-127 43,-17 83,-34 126,-50 47,-17 150,-47 204,-39 44,15 69,20 111,45 41,25 72,55 111,81 33,33 78,68 114,99 33,27 85,83 123,114 34,35 102,108 138,132 26,26 75,81 102,99 37,37 131,123 156,159l84 87c4,51 -163,-35 -195,-54 -14,-1 -83,-22 -99,-27 -8,-10 -222,-37 -249,-42 -16,-2 -78,0 -114,-6 -27,0 -73,-4 -96,3 -71,0 -133,9 -204,15 -35,6 -162,34 -177,45 -32,0 -126,37 -156,51 -30,16 -75,48 -105,54z"/>
  <path class="fil0 str0" d="M401 4560c16,-13 140,-38 175,-44l129 -12c21,-7 51,-3 75,-3 23,-8 69,-3 96,-3 36,6 98,4 114,6l204 33c16,0 15,-3 24,9 0,16 12,60 15,81l6 90 -9 81c-17,50 -15,79 -45,129 -8,3 -5,2 -12,3 -18,-5 -34,-28 -48,-42l-108 -114c-12,-8 -89,-30 -108,-33l-165 3c-18,3 -95,20 -114,36 -18,15 -42,47 -57,66l-48 54c-15,18 -29,42 -51,51 -36,-25 -73,-159 -81,-213l0 -18c-7,-22 -3,-53 -3,-78 4,-25 9,-55 11,-82z"/>
 </g>
</svg>
